<?xml version="1.0" encoding="UTF-8" standalone="no"?>
<!-- Created with Inkscape (http://www.inkscape.org/) -->

<svg
   xmlns:dc="http://purl.org/dc/elements/1.1/"
   xmlns:cc="http://creativecommons.org/ns#"
   xmlns:rdf="http://www.w3.org/1999/02/22-rdf-syntax-ns#"
   xmlns:svg="http://www.w3.org/2000/svg"
   xmlns="http://www.w3.org/2000/svg"
   xmlns:sodipodi="http://sodipodi.sourceforge.net/DTD/sodipodi-0.dtd"
   xmlns:inkscape="http://www.inkscape.org/namespaces/inkscape"
   version="1.1"
   id="svg2"
   width="1307"
   height="1307"
   viewBox="0 0 1307 1307.0001"
   sodipodi:docname="icon.svg"
   inkscape:version="0.92.3 (2405546, 2018-03-11)">
  <metadata
     id="metadata8">
    <rdf:RDF>
      <cc:Work
         rdf:about="">
        <dc:format>image/svg+xml</dc:format>
        <dc:type
           rdf:resource="http://purl.org/dc/dcmitype/StillImage" />
        <dc:title></dc:title>
      </cc:Work>
    </rdf:RDF>
  </metadata>
  <defs
     id="defs6" />
  <sodipodi:namedview
     pagecolor="#ffffff"
     bordercolor="#666666"
     borderopacity="1"
     objecttolerance="10"
     gridtolerance="10"
     guidetolerance="10"
     inkscape:pageopacity="0"
     inkscape:pageshadow="2"
     inkscape:window-width="1920"
     inkscape:window-height="1014"
     id="namedview4"
     showgrid="false"
     fit-margin-top="0"
     fit-margin-left="0"
     fit-margin-right="0"
     fit-margin-bottom="0"
     inkscape:zoom="0.18024441"
     inkscape:cx="637.03713"
     inkscape:cy="669.97747"
     inkscape:window-x="0"
     inkscape:window-y="0"
     inkscape:window-maximized="1"
     inkscape:current-layer="svg2" />
  <path
     style="fill:#000000;stroke-width:1.33333337"
     d="m 599.272,1305.5669 c -16.0299,-1.5481 -22.6232,-4.1658 -32.1055,-12.7469 -8.606,-7.7879 -13.477,-14.929 -16.248,-23.82 -1.1198,-3.5929 -1.9192,-20.5623 -2.4498,-52 l -0.7875,-46.6667 -21.3334,-5.3956 c -25.1027,-6.3489 -41.4019,-11.6787 -65.9321,-21.5597 -34.9562,-14.0805 -70.267,-32.3692 -96.3501,-49.9031 -6.3885,-4.2945 -12.1371,-7.8083 -12.7746,-7.8083 -0.6375,0 -13.5109,11.9119 -28.6076,26.4708 -28.8051,27.7791 -40.4842,37.5219 -50.1844,41.8638 -13.3961,5.9963 -32.0047,3.7951 -45.4085,-5.3715 -9.633,-6.5878 -58.0704,-54.0446 -68.9829,-67.5864 -4.7468,-5.8905 -10.4651,-14.3024 -12.7074,-18.6931 -7.5908,-14.8637 -6.3912,-34.0729 3.039,-48.6632 2.757,-4.2656 18.5643,-21.59578 35.1274,-38.51141 16.563,-16.91562 30.1146,-31.07018 30.1146,-31.45461 0,-0.38441 -4.2329,-7.75391 -9.4064,-16.37664 -29.5807,-49.30272 -57.273,-121.87121 -66.6234,-174.58846 l -1.6988,-9.57742 -47.468997,-0.42258 -47.469103,-0.42258 -7.6241,-3.57341 c -8.9362,-4.18837 -19.074,-13.2168 -27.4283,-24.42658 l -5.9621,-8 0.9305,-53.12295 c 0.9879,-56.39864 1.6587,-64.40233 6.1812,-73.74457 4.2841,-8.84976 14.7245,-19.46624 24.0107,-24.41577 7.1808,-3.8273 10.0804,-4.53315 22.4035,-5.45364 7.7854,-0.58154 29.3375,-0.49346 47.8936,0.19574 l 33.7383,1.2531 11.595,5.8228 c 55.9006,28.07232 80.8558,34.48863 148.2617,38.12006 32.1888,1.73413 37.5816,2.34393 48.3038,5.46204 7.2965,2.12187 10.3038,3.9104 16.1151,9.58403 4.167,4.0683 7.506,8.6404 8.0119,10.97058 0.4769,2.19739 1.4756,17.79524 2.2191,34.66191 1.9907,45.15873 4.0638,58.51216 13.455,86.66666 28.5584,85.617 97.1507,153.78708 183.5757,182.44557 26.9398,8.9332 41.0625,11.39351 73.9763,12.88731 46.4106,2.10636 51.0844,2.88489 55.6284,9.26625 5.6066,7.87387 6.8394,17.26976 8.0561,61.40087 0.6368,23.1 1.8429,48 2.6803,55.3333 2.958,25.9061 14.2893,63.4595 27.7599,92 l 7.5517,16 -0.075,41.3334 c -0.119,65.6267 -2.0648,71.6721 -28.3279,88.0161 l -9.6154,5.9839 -46.9908,-0.1817 c -25.8449,-0.1 -51.9749,-0.6631 -58.0666,-1.2514 z m 381.0758,-58.6639 c -37.5132,-4.4297 -71.9092,-17.4174 -101.3333,-38.2627 -15.4635,-10.9551 -44.4055,-39.4608 -56.222,-55.3746 -21.4031,-28.8244 -33.1438,-57.5732 -39.1082,-95.7625 -1.4008,-8.9689 -2.5752,-29.5501 -3.3384,-58.50328 -1.2425,-47.13686 -2.2044,-55.18735 -8.4377,-70.61954 -5.59,-13.83947 -11.6062,-22.39003 -29.4741,-41.89068 -27.0308,-29.50073 -311.6336,-313.54326 -328.7529,-328.10574 -17.2341,-14.66002 -31.6655,-24.82804 -41.8194,-29.46482 -12.2092,-5.57534 -21.915,-7.2477 -50.1806,-8.64636 -65.0084,-3.21683 -93.7979,-8.92035 -127.3334,-25.22623 C 172.2886,484.32078 157.4449,473.41083 136.2335,452.33331 111.1647,427.42275 98.423703,409.39661 86.111003,381.41929 74.4435,354.90826 68.521,328.38974 67.384,297.56744 c -0.8096,-21.94748 -0.017,-25.06938 8.6237,-33.96635 6.005,-6.18323 12.414103,-8.91812 21.242303,-9.06459 9.590597,-0.1591 14.888997,3.78127 50.294697,37.40375 41.0489,38.9816 49.0053,45.06413 64.0833,48.9904 4.3707,1.13813 12.8575,2.06933 18.8595,2.06933 23.5872,0 38.3866,-8.4608 69.905,-39.96481 22.7889,-22.77841 31.5642,-33.61591 37.8153,-46.70185 3.9987,-8.37086 4.14,-9.28104 4.14,-26.66667 0,-17.35829 -0.1469,-18.30897 -4.1203,-26.66667 -5.7904,-12.17929 -16.0723,-24.51919 -47.0106,-56.41987 -48.2522,-49.753277 -50.6777,-54.140437 -40.1359,-72.598408 8.0086,-14.022548 20.3224,-17.491177 53.7524,-15.141391 49.7382,3.496078 72.0217,9.807763 108.6554,30.776162 19.5411,11.184867 30.4602,19.577007 46.8607,36.015817 34.4231,34.50351 53.8153,70.80268 63.414,118.70103 1.7195,8.58069 2.5165,22.6677 3.2816,58 1.0995,50.78193 1.6363,55.06117 9.5424,76.0721 5.8995,15.67805 10.8796,22.89837 31.2222,45.26673 25.8516,28.42583 324.9635,326.87207 337.7602,337.00847 25.713,20.36747 40.4173,24.68647 94.11125,27.64276 66.18175,3.64386 85.03035,8.09478 122.27485,28.8741 59.2526,33.05805 101.2516,89.97503 114.3128,154.91667 5.3994,26.84597 6.6539,48.88785 3.4052,59.82755 -5.4287,18.2802 -28.3193,27.4905 -42.9687,17.289 -2.7633,-1.9242 -17.9241,-15.9113 -33.6908,-31.0823 -36.1621,-34.79578 -51.825,-47.93053 -60.0795,-50.38183 -17.5063,-5.19884 -39.9132,-3.62186 -55.2538,3.88876 -10.4512,5.11677 -29.7812,21.64539 -49.46635,42.29737 -23.39715,24.5465 -30.12555,35.6529 -32.72205,54.0138 -1.7546,12.4068 -0.3842,24.6977 4.0672,36.4778 3.6291,9.604 12.4482,20.1094 49.252,58.6695 40.7121,42.655 44.607,48.2045 42.3346,60.3174 -1.1593,6.18 -7.5709,15.8293 -13.551,20.394 l -5.0326,3.8414 -26.1076,0.2086 c -14.3592,0.1148 -30.60765,-0.3227 -36.1076,-0.9722 z m 212,-489.21115 c -17.367,-1.43184 -21.6172,-2.74427 -45.3333,-13.99852 -47.2064,-22.40135 -77.0391,-29.16812 -138,-31.30172 -43.2219,-1.51274 -48.9545,-3.17168 -63.835,-18.47289 l -6.5017,-6.68549 -0.2599,-29.7833 C 937.9618,605.19141 930.1034,570.38815 909.4146,528.99998 879.9028,469.96111 830.8289,421.96047 771.6812,394.2787 737.1946,378.13862 709.0331,372.03397 658.0365,369.64362 c -40.8968,-1.91695 -43.482,-2.57677 -48.1886,-12.29925 -4.0307,-8.32631 -5.274,-20.66608 -6.8189,-67.67772 -2.083,-63.38635 -6.3072,-83.91615 -26.9974,-131.20797 -5.8672,-13.41095 -9.7107,-24.19524 -10.4543,-29.33334 -1.5576,-10.76321 -1.483,-69.540349 0.1039,-81.755032 0.7275,-5.600467 2.7277,-12.543973 4.7804,-16.59474 4.8962,-9.66213 16.767,-21.6956641 25.7581,-26.1112261 l 7.4615,-3.66435197 43.3333,-0.421119 c 47.4031,-0.460669 69.2983,0.94884097 80.6365,5.19099497 5.6028,2.096282 9.2238,4.8424631 15.916,12.0706401 15.3338,16.561895 17.6046,28.521856 16.2195,85.424324 l -0.899,36.93152 5.7302,1.46869 c 66.9007,17.14741 115.8813,37.2318 170.279,69.82256 10.5685,6.33181 19.6332,11.51238 20.1438,11.51238 0.5106,0 12.4828,-10.95 26.6049,-24.33333 43.7347,-41.44688 48.5409,-44.9557 65.1486,-47.56245 22.1093,-3.47029 33.3649,3.59476 77.6065,48.71304 32.9917,33.64548 41.685,45.93312 43.4485,61.41317 1.1253,9.87831 -2.6198,25.14 -8.1181,33.08171 -2.5466,3.67832 -18.9697,21.00333 -36.4958,38.50002 l -31.8655,31.81216 10.657,17.52117 c 28.294,46.51788 49.7967,99.47644 63.0865,155.37415 3.2063,13.48581 6.0087,24.6988 6.2277,24.91777 0.219,0.21897 22.8851,1.07268 50.3692,1.89715 l 49.9712,1.499 7.3162,4.80678 c 4.0239,2.64374 10.4778,7.79692 14.342,11.45154 10.8684,10.27887 12.5,16.84385 13.3153,53.57478 0.7572,34.11897 -1.3321,76.51763 -4.3365,88 -2.6884,10.275 -7.3538,16.9343 -16.4038,23.41488 -14.0978,10.09524 -18.4357,11.05184 -51.5666,11.37157 -16.1333,0.15569 -35.0333,-0.18687 -42,-0.76124 z"
     id="path817"
     inkscape:connector-curvature="0" />
</svg>
